# xmcd CD database file
#
# Track frame offsets:
#	187
#	9312
#	30825
#	46342
#	52525
#	70837
#	94695
#	104535
#	113595
#	116120
#	126402
#	138942
#	154920
#	170285
#	182597
#	184987
#	189257
#	194577
#	213862
#	223272
#	241200
#
# Disc length: 3407 seconds
#
# Revision: 0
# Processed by: cddbd v1.5.1PL0 Copyright (c) Steve Scherf et al.
# Submitted via: CDex 1.51
#
DISCID=1d0d4d15
DTITLE=溝口肇 - 続・星の金貨
DYEAR=1900
DGENRE=New Age
TTITLE0=ペテルギウス
TTITLE1=メイン・テーマ-星の金貨
TTITLE2=ヤヌス-最後の光
TTITLE3=イオ
TTITLE4=テーマ・オブ・ラヴ
TTITLE5=青い記憶
TTITLE6=ミランダ
TTITLE7=エピメテウス
TTITLE8=オリオン
TTITLE9=デイモス
TTITLE10=リンド1
TTITLE11=メイン・テーマ-続・星の金貨
TTITLE12=鏡のドレス(オーケストラ・ヴァージョン)
TTITLE13=テーマ・オブ・ラヴ2
TTITLE14=エララ
TTITLE15=カリプソ
TTITLE16=ミマス
TTITLE17=ジュピター
TTITLE18=ヤヌス-安息の地
TTITLE19=鏡のドレス(歌:酒井法子)
TTITLE20=リンド2
EXTD=
EXTT0=
EXTT1=
EXTT2=
EXTT3=
EXTT4=
EXTT5=
EXTT6=
EXTT7=
EXTT8=
EXTT9=
EXTT10=
EXTT11=
EXTT12=
EXTT13=
EXTT14=
EXTT15=
EXTT16=
EXTT17=
EXTT18=
EXTT19=
EXTT20=
PLAYORDER=
